<?xml version="1.0" encoding="UTF-8"?>
<svg version="1.1" xmlns="http://www.w3.org/2000/svg" width="1024" height="1024">
<path d="M0 0 C337.92 0 675.84 0 1024 0 C1024 337.92 1024 675.84 1024 1024 C686.08 1024 348.16 1024 0 1024 C0 686.08 0 348.16 0 0 Z " fill="#E1E4E6" transform="translate(0,0)"/>
<path d="M0 0 C24.31545504 2.4315455 47.54019826 10.54519545 66 27 C66.69365662 27.52615906 67.38731323 28.05231812 68.10198975 28.59442139 C70.79745901 32.01071654 70.52998196 35.1814279 70.45410156 39.34863281 C70.45468567 40.18802399 70.45526978 41.02741516 70.45587158 41.89224243 C70.45308786 44.66295929 70.42198277 47.43259641 70.390625 50.203125 C70.38316362 52.12554334 70.3774702 54.04796929 70.37347412 55.97039795 C70.35820967 61.0274764 70.31892075 66.0840945 70.2746582 71.14099121 C70.23372306 76.30226413 70.21546685 81.4636115 70.1953125 86.625 C70.15242739 96.75020213 70.08416613 106.87506277 70 117 C66.38695761 115.84837233 62.97867187 114.61200366 59.59716797 112.89624023 C58.7812619 112.48498398 57.96535583 112.07372772 57.12472534 111.65000916 C56.25598785 111.20734207 55.38725037 110.76467499 54.4921875 110.30859375 C53.57148468 109.84445572 52.65078186 109.38031769 51.70217896 108.90211487 C47.79102141 106.93036628 43.8845484 104.94942084 39.97802734 102.96850586 C37.10956315 101.51574552 34.23842965 100.0683542 31.3671875 98.62109375 C30.52678925 98.19259628 29.68639099 97.76409882 28.82052612 97.32261658 C19.34108337 92.54648661 9.7150542 88.37177439 0 84 C0 56.28 0 28.56 0 0 Z " fill="#7A248F" transform="translate(204,456)"/>
<path d="M0 0 C0 28.05 0 56.1 0 85 C-7.92 88.63 -15.84 92.26 -24 96 C-29.62487927 98.63460387 -35.24841855 101.26962967 -40.86181641 103.92822266 C-43.18965434 105.0306184 -45.51858953 106.1306718 -47.84765625 107.23046875 C-49.35943687 107.94518165 -50.8711581 108.66002019 -52.3828125 109.375 C-53.06401154 109.69686279 -53.74521057 110.01872559 -54.447052 110.3503418 C-57.42378167 111.76094353 -60.37161086 113.1951026 -63.28857422 114.7265625 C-66 116 -66 116 -69 116 C-69.20899388 105.07318476 -69.36867771 94.14684874 -69.46630955 83.21843815 C-69.51318122 78.14319579 -69.5767004 73.06932566 -69.67895508 67.99487305 C-69.77711024 63.09290125 -69.83063296 58.19224479 -69.85389519 53.28936577 C-69.87046076 51.42377459 -69.90281205 49.55825142 -69.95157051 47.69322395 C-70.31747534 33.11055893 -70.31747534 33.11055893 -67.05651855 27.88659668 C-64.81805738 25.60802666 -62.63937503 23.78753473 -60 22 C-59.4068248 21.54141098 -58.8136496 21.08282196 -58.20249939 20.6103363 C-41.79135019 8.30727992 -20.54924815 0 0 0 Z " fill="#7D2392" transform="translate(348,456)"/>
<path d="M0 0 C4.29 0 8.58 0 13 0 C13 21.45 13 42.9 13 65 C7.39 65.0825 1.78 65.165 -4 65.25 C-5.75441406 65.28641602 -7.50882813 65.32283203 -9.31640625 65.36035156 C-10.73175845 65.3720513 -12.14712428 65.38224007 -13.5625 65.390625 C-14.27728516 65.41108887 -14.99207031 65.43155273 -15.72851562 65.45263672 C-21.17610516 65.45634761 -25.57634669 64.28642332 -30 61 C-32.88387541 56.85099803 -33.38322822 53.45312687 -33.3984375 48.46484375 C-33.40230469 47.24345703 -33.40617188 46.02207031 -33.41015625 44.76367188 C-33.39855469 43.50103516 -33.38695312 42.23839844 -33.375 40.9375 C-33.38660156 39.67099609 -33.39820313 38.40449219 -33.41015625 37.09960938 C-33.40628906 35.87951172 -33.40242187 34.65941406 -33.3984375 33.40234375 C-33.39505371 32.29366943 -33.39166992 31.18499512 -33.38818359 30.04272461 C-32.79390809 25.3845764 -30.94194842 22.84775358 -27.5 19.75 C-23.87142489 17.20999742 -21.21049406 16.87739599 -16.89453125 16.90234375 C-15.91162109 16.90556641 -14.92871094 16.90878906 -13.91601562 16.91210938 C-12.37977539 16.92467773 -12.37977539 16.92467773 -10.8125 16.9375 C-9.25885742 16.94426758 -9.25885742 16.94426758 -7.67382812 16.95117188 C-5.1158608 16.96295974 -2.55792314 16.98089518 0 17 C0 11.39 0 5.78 0 0 Z " fill="#7F2291" transform="translate(550,476)"/>
<path d="M0 0 C1.11181641 -0.02900391 2.22363281 -0.05800781 3.36914062 -0.08789062 C9.93940818 -0.13846107 15.54864539 0.03435879 20.8125 4.3125 C25.74753462 10.2548439 25.41799562 16.26420668 25.3125 23.75 C25.32796875 24.84376953 25.3434375 25.93753906 25.359375 27.06445312 C25.32817313 33.54274219 24.98423243 39.11425705 20.8125 44.3125 C14.76116733 49.41302408 8.3912296 48.88226026 0.75 48.75 C-0.40822266 48.75708984 -1.56644531 48.76417969 -2.75976562 48.77148438 C-13.35215311 48.6923913 -13.35215311 48.6923913 -18.1875 45.3125 C-24.17214111 38.68087067 -23.43523559 33.21502494 -23.5 24.5625 C-23.52900391 23.28632812 -23.55800781 22.01015625 -23.58789062 20.6953125 C-23.66702184 9.03258875 -23.66702184 9.03258875 -19.1875 4.3125 C-13.47458682 -0.70793885 -7.22300415 0.06173508 0 0 Z " fill="#7F2292" transform="translate(485.1875,492.6875)"/>
<path d="M0 0 C0.96873047 -0.020625 1.93746094 -0.04125 2.93554688 -0.0625 C9.11960669 -0.09594995 13.70716252 0.58079168 19.3125 3.25 C23.12465658 7.15990418 24.44639604 10.29948932 24.41015625 15.69921875 C24.40765869 16.46322998 24.40516113 17.22724121 24.40258789 18.0144043 C24.39348389 18.97902588 24.38437988 19.94364746 24.375 20.9375 C24.354375 24.010625 24.33375 27.08375 24.3125 30.25 C13.0925 30.25 1.8725 30.25 -9.6875 30.25 C-9.0275 32.23 -8.3675 34.21 -7.6875 36.25 C7.1625 36.745 7.1625 36.745 22.3125 37.25 C23.4702506 40.72325181 23.38116652 43.61067448 23.3125 47.25 C15.78504935 48.23219142 8.33787221 48.53352976 0.75 48.625 C-0.43013672 48.66238281 -1.61027344 48.69976563 -2.82617188 48.73828125 C-9.22602499 48.80274536 -13.84130599 48.43675437 -19.21459961 44.81884766 C-24.25863845 39.44623144 -23.01805045 31.639181 -23 24.8125 C-23.01611328 23.59755859 -23.03222656 22.38261719 -23.04882812 21.13085938 C-23.04947266 19.95458984 -23.05011719 18.77832031 -23.05078125 17.56640625 C-23.05376221 16.49849854 -23.05674316 15.43059082 -23.05981445 14.33032227 C-22.62367412 10.72194023 -21.56411778 8.34962547 -19.6875 5.25 C-13.09192108 0.16590792 -7.9992452 0.04174427 0 0 Z " fill="#7D228F" transform="translate(593.6875,492.75)"/>
<path d="M0 0 C0.93779297 -0.01546875 1.87558594 -0.0309375 2.84179688 -0.046875 C9.28356577 -0.01106253 14.57933777 0.98407355 20.0625 4.5 C23.1402891 7.61296383 23.23077154 10.37784609 23.35546875 14.58203125 C23.33843284 16.49243504 23.29963843 18.40266522 23.25 20.3125 C23.188125 23.674375 23.12625 27.03625 23.0625 30.5 C12.1725 30.5 1.2825 30.5 -9.9375 30.5 C-9.2775 32.48 -8.6175 34.46 -7.9375 36.5 C6.9125 36.995 6.9125 36.995 22.0625 37.5 C22.5575 42.45 22.5575 42.45 23.0625 47.5 C17.14874152 48.89048909 11.24381464 48.72299001 5.19750977 48.74023438 C3.13452044 48.74995514 1.07252237 48.7810263 -0.99023438 48.8125 C-2.30185547 48.81765625 -3.61347656 48.8228125 -4.96484375 48.828125 C-6.75523071 48.84214355 -6.75523071 48.84214355 -8.58178711 48.85644531 C-13.63055588 48.32016285 -16.86006123 46.69391864 -20.25 42.9375 C-24.05091056 37.44729586 -23.19916723 31.82926066 -23.25 25.3125 C-23.27900391 24.09240234 -23.30800781 22.87230469 -23.33789062 21.61523438 C-23.42189553 9.71884771 -23.42189553 9.71884771 -18.9375 4.5 C-13.16948358 0.0417404 -7.04669331 -0.11575677 0 0 Z " fill="#76248B" transform="translate(704.9375,492.5)"/>
<path d="M0 0 C1.03318359 -0.020625 2.06636719 -0.04125 3.13085938 -0.0625 C8.72238236 -0.09119287 12.90779485 -0.00607746 17.6875 3.25 C21.24523294 7.19235272 22.81849057 9.55348987 22.78515625 14.8203125 C22.78265869 15.62742676 22.78016113 16.43454102 22.77758789 17.26611328 C22.76848389 18.2920459 22.75937988 19.31797852 22.75 20.375 C22.729375 23.63375 22.70875 26.8925 22.6875 30.25 C11.7975 30.25 0.9075 30.25 -10.3125 30.25 C-9.6525 32.23 -8.9925 34.21 -8.3125 36.25 C6.5375 36.745 6.5375 36.745 21.6875 37.25 C22.1825 42.2 22.1825 42.2 22.6875 47.25 C15.27521087 48.22675223 7.97251832 48.46613023 0.5 48.5 C-0.64919922 48.520625 -1.79839844 48.54125 -2.98242188 48.5625 C-9.8384418 48.59425921 -14.44239105 48.15258171 -20.0625 43.9375 C-24.31587947 38.19543771 -23.64550358 31.04078466 -23.625 24.25 C-23.64111328 23.18265625 -23.65722656 22.1153125 -23.67382812 21.015625 C-23.67787341 14.51081391 -23.39116468 9.62530685 -18.8125 4.60546875 C-12.56299976 -0.26067857 -7.63295148 0.03767033 0 0 Z " fill="#722589" transform="translate(846.3125,492.75)"/>
<path d="M0 0 C1.24819519 0.00848969 1.24819519 0.00848969 2.52160645 0.01715088 C5.1504341 0.03934316 7.77784217 0.08950367 10.40625 0.140625 C12.20050099 0.16071232 13.99477359 0.17895916 15.7890625 0.1953125 C20.16199602 0.23915117 24.53388328 0.30805561 28.90625 0.390625 C28.90625 4.350625 28.90625 8.310625 28.90625 12.390625 C27.43816895 12.41249878 27.43816895 12.41249878 25.94042969 12.43481445 C22.30220374 12.49287606 18.66459164 12.5701076 15.02685547 12.65307617 C13.45371478 12.68628872 11.88045599 12.71433217 10.30712891 12.73706055 C8.04278328 12.77067528 5.77951635 12.82299124 3.515625 12.87890625 C2.81443542 12.88529617 2.11324585 12.8916861 1.39080811 12.89826965 C-1.54743003 12.98633973 -3.85534594 13.28071701 -6.53613281 14.51660156 C-8.82278493 17.26775229 -8.61138541 19.34473719 -8.625 22.88671875 C-8.63015625 24.16740234 -8.6353125 25.44808594 -8.640625 26.76757812 C-8.63224609 27.434104 -8.62386719 28.10062988 -8.61523438 28.78735352 C-8.59385195 30.81844058 -8.61501308 32.84597721 -8.640625 34.87695312 C-8.63546875 36.15892578 -8.6303125 37.44089844 -8.625 38.76171875 C-8.62048828 39.93661865 -8.61597656 41.11151855 -8.61132812 42.32202148 C-8.29932931 45.42379647 -8.29932931 45.42379647 -6.53613281 47.7668457 C-3.24327845 49.95604746 -0.31414378 49.99328941 3.515625 50 C4.24243469 50.01653625 4.96924438 50.03307251 5.71807861 50.05010986 C8.03088869 50.09854861 10.34304157 50.11994989 12.65625 50.140625 C14.22789757 50.16878841 15.79951459 50.19871637 17.37109375 50.23046875 C21.21609169 50.30430547 25.06072572 50.35390448 28.90625 50.390625 C28.90625 54.350625 28.90625 58.310625 28.90625 62.390625 C23.82007547 62.51526734 18.73481144 62.60544892 13.64746094 62.6652832 C11.9210662 62.69025438 10.19477529 62.72424407 8.46875 62.76782227 C-8.61706045 63.18804619 -8.61706045 63.18804619 -16.18798828 59.25463867 C-20.77898674 54.76421166 -22.53523802 49.36096891 -22.67518616 43.04821777 C-22.67022629 42.30527466 -22.66526642 41.56233154 -22.66015625 40.796875 C-22.66635483 40.00591431 -22.67255341 39.21495361 -22.67893982 38.40002441 C-22.68599549 36.73951437 -22.68293891 35.07893294 -22.67016602 33.41845703 C-22.65628027 30.89612277 -22.69045198 28.37749193 -22.72851562 25.85546875 C-22.80884477 10.67758747 -22.80884477 10.67758747 -18.72950745 5.94122314 C-13.29252742 0.78729818 -7.22273053 -0.18877298 0 0 Z " fill="#802291" transform="translate(427.09375,478.609375)"/>
<path d="M0 0 C4.62 0 9.24 0 14 0 C19.91727638 14.57552547 25.53105705 29.25065806 31 44 C32.63951701 41.54072448 33.58569616 39.71609607 34.58813477 37.00341797 C34.88506729 36.20604218 35.18199982 35.40866638 35.4879303 34.58712769 C35.80257736 33.73079742 36.11722443 32.87446716 36.44140625 31.9921875 C36.76914536 31.11096222 37.09688446 30.22973694 37.43455505 29.32180786 C38.48086697 26.50754876 39.52211621 23.69145553 40.5625 20.875 C41.60684423 18.05155361 42.65231371 15.22854731 43.70115662 12.4067688 C44.35383965 10.6505177 45.0038578 8.8932736 45.65101624 7.13497925 C45.9447966 6.34390778 46.23857697 5.5528363 46.54125977 4.73779297 C46.79948013 4.03846649 47.0577005 3.33914001 47.32374573 2.61862183 C48 1 48 1 49 0 C51.18639453 -0.07258946 53.37500389 -0.08373783 55.5625 -0.0625 C57.35880859 -0.04896484 57.35880859 -0.04896484 59.19140625 -0.03515625 C60.11824219 -0.02355469 61.04507813 -0.01195312 62 0 C60.69588421 6.52671885 58.85562916 12.51882131 56.4453125 18.71484375 C55.93108231 20.05851768 55.93108231 20.05851768 55.40646362 21.42933655 C54.31851383 24.26768746 53.22184413 27.10257607 52.125 29.9375 C51.39657392 31.83507101 50.6687046 33.73285584 49.94140625 35.63085938 C46.68585363 44.11142029 43.38604293 52.57056489 40 61 C34.39 61 28.78 61 23 61 C22.51644043 59.77595459 22.03288086 58.55190918 21.53466797 57.29077148 C19.71223414 52.677852 17.88937861 48.06509926 16.06640625 43.45239258 C15.2827655 41.46936396 14.49923377 39.48629225 13.71582031 37.50317383 C12.95471189 35.5765573 12.19342162 33.65001261 11.4319458 31.72354126 C10.68262205 29.82743044 9.93387996 27.93108965 9.18572998 26.03451538 C7.51316911 21.79969103 5.83117343 17.56983602 4.10644531 13.35595703 C3.82310333 12.66067398 3.53976135 11.96539093 3.24783325 11.2490387 C2.50291065 9.42610712 1.75195062 7.60564586 1.00048828 5.78540039 C0 3 0 3 0 0 Z " fill="#79238D" transform="translate(619,480)"/>
<path d="M0 0 C0.7003688 0.00424484 1.40073761 0.00848969 2.12232971 0.01286316 C4.33326625 0.02949719 6.54325082 0.06711695 8.75390625 0.10546875 C10.2636586 0.12053549 11.77342541 0.13422039 13.28320312 0.14648438 C16.96124059 0.17934954 20.63873032 0.23102293 24.31640625 0.29296875 C24.31640625 4.25296875 24.31640625 8.21296875 24.31640625 12.29296875 C14.41640625 12.62296875 4.51640625 12.95296875 -5.68359375 13.29296875 C-5.35359375 14.94296875 -5.02359375 16.59296875 -4.68359375 18.29296875 C-3.6934729 18.29127686 -3.6934729 18.29127686 -2.68334961 18.28955078 C0.33841302 18.30173638 3.35769932 18.35948199 6.37890625 18.41796875 C7.41724609 18.41539062 8.45558594 18.4128125 9.52539062 18.41015625 C15.80377238 18.56960722 19.53470468 19.28540086 24.10717773 23.71826172 C27.45205948 28.07410408 26.84374754 34.10125666 26.31640625 39.29296875 C23.95235339 44.38477492 21.40798839 46.16079242 16.31640625 48.29296875 C13.16015625 48.64941406 13.16015625 48.64941406 9.81640625 48.62109375 C7.99109375 48.61335937 7.99109375 48.61335937 6.12890625 48.60546875 C4.87078125 48.58484375 3.61265625 48.56421875 2.31640625 48.54296875 C0.42921875 48.53523437 0.42921875 48.53523437 -1.49609375 48.52734375 C-7.01758983 48.48055141 -12.24507012 48.31473957 -17.68359375 47.29296875 C-17.68359375 43.99296875 -17.68359375 40.69296875 -17.68359375 37.29296875 C-2.33859375 36.79796875 -2.33859375 36.79796875 13.31640625 36.29296875 C12.65640625 34.31296875 11.99640625 32.33296875 11.31640625 30.29296875 C10.65108887 30.28885986 9.98577148 30.28475098 9.30029297 30.28051758 C6.26311648 30.24746455 3.22791488 30.17680841 0.19140625 30.10546875 C-0.8553125 30.09966797 -1.90203125 30.09386719 -2.98046875 30.08789062 C-11.71305466 29.83917774 -11.71305466 29.83917774 -15.36328125 26.9296875 C-18.8029247 23.02100176 -18.88613702 19.97597818 -18.99609375 14.91796875 C-19.03347656 13.79648437 -19.07085938 12.675 -19.109375 11.51953125 C-18.5798154 7.50653832 -17.62224925 6.05596956 -14.68359375 3.29296875 C-9.55371123 0.66601705 -5.8536508 -0.07052591 0 0 Z " fill="#74258A" transform="translate(790.68359375,492.70703125)"/>
<path d="M0 0 C1.73056641 0.01450195 1.73056641 0.01450195 3.49609375 0.02929688 C4.68589844 0.05443359 5.87570312 0.07957031 7.1015625 0.10546875 C8.92107422 0.12577148 8.92107422 0.12577148 10.77734375 0.14648438 C13.76060818 0.18171978 16.74364309 0.23552308 19.7265625 0.29296875 C19.7265625 3.92296875 19.7265625 7.55296875 19.7265625 11.29296875 C13.4565625 11.29296875 7.1865625 11.29296875 0.7265625 11.29296875 C0.7265625 23.17296875 0.7265625 35.05296875 0.7265625 47.29296875 C-3.5634375 47.29296875 -7.8534375 47.29296875 -12.2734375 47.29296875 C-12.2734375 32.77296875 -12.2734375 18.25296875 -12.2734375 3.29296875 C-6.89896691 0.60573346 -5.50402893 -0.081743 0 0 Z " fill="#732489" transform="translate(748.2734375,493.70703125)"/>
<path d="M0 0 C0.66 0 1.32 0 2 0 C2.23074219 0.56847656 2.46148438 1.13695312 2.69921875 1.72265625 C6.45474645 10.61420208 10.17712944 16.59716401 19 21 C22.30392016 22.29904008 22.30392016 22.29904008 25 23 C25 23.66 25 24.32 25 25 C24.443125 25.20753906 23.88625 25.41507813 23.3125 25.62890625 C14.93893647 29.00944963 8.43090898 33.99027992 4 42 C2.75675853 45.2249208 2.75675853 45.2249208 2 48 C1.34 48 0.68 48 0 48 C-0.36351562 47.12988281 -0.36351562 47.12988281 -0.734375 46.2421875 C-4.57624435 37.28767662 -8.37341124 31.79751568 -17 27 C-20.33726377 25.63206325 -20.33726377 25.63206325 -23 25 C-23 24.34 -23 23.68 -23 23 C-22.12988281 22.63648438 -22.12988281 22.63648438 -21.2421875 22.265625 C-12.28767662 18.42375565 -6.79751568 14.62658876 -2 6 C-0.63206325 2.66273623 -0.63206325 2.66273623 0 0 Z " fill="#E6E9EA" transform="translate(967,944)"/>
<path d="M0 0 C0 4.62 0 9.24 0 14 C-1.12535156 14.21914063 -2.25070312 14.43828125 -3.41015625 14.6640625 C-22.9692005 18.63247102 -38.91909002 26.32903344 -55 38 C-55.33 37.34 -55.66 36.68 -56 36 C-48.58774455 24.46437065 -39.98402226 15.73453701 -28 9 C-27.18789063 8.53851563 -26.37578125 8.07703125 -25.5390625 7.6015625 C-17.61675337 3.37120326 -9.03481154 0 0 0 Z " fill="#882A98" transform="translate(336,437)"/>
<path d="M0 0 C20.98495623 4.24164009 38.86504191 13.35012109 51.5703125 31.20703125 C54.15681984 35.12919402 54.15681984 35.12919402 55 37 C54.505 37.99 54.505 37.99 54 39 C53.195625 38.29037109 53.195625 38.29037109 52.375 37.56640625 C37.27247066 24.82364712 19.47436963 17.14102736 0 14 C0 9.38 0 4.76 0 0 Z " fill="#842795" transform="translate(218,437)"/>
<path d="M0 0 C1.31871094 -0.00773437 2.63742187 -0.01546875 3.99609375 -0.0234375 C7.75774826 0.39681306 8.91342967 0.79916762 11.5625 3.375 C12.08007812 5.50390625 12.08007812 5.50390625 12.09375 7.9375 C12.09890625 8.81664062 12.1040625 9.69578125 12.109375 10.6015625 C12.08617187 11.97441406 12.08617187 11.97441406 12.0625 13.375 C12.07796875 14.29023437 12.0934375 15.20546875 12.109375 16.1484375 C12.10421875 17.02757812 12.0990625 17.90671875 12.09375 18.8125 C12.08923828 19.61558594 12.08472656 20.41867187 12.08007812 21.24609375 C11.5625 23.375 11.5625 23.375 9.75219727 25.13525391 C6.50050107 26.97627445 3.70272887 26.77171688 0 26.75 C-0.67224609 26.76160156 -1.34449219 26.77320313 -2.03710938 26.78515625 C-6.91812002 26.75607376 -6.91812002 26.75607376 -9.12719727 25.13525391 C-10.79650114 22.89271973 -10.82423223 21.59055101 -10.8359375 18.8125 C-10.83980469 17.93335938 -10.84367187 17.05421875 -10.84765625 16.1484375 C-10.83605469 15.23320313 -10.82445312 14.31796875 -10.8125 13.375 C-10.82990234 12.00214844 -10.82990234 12.00214844 -10.84765625 10.6015625 C-10.84378906 9.72242188 -10.83992188 8.84328125 -10.8359375 7.9375 C-10.83086182 6.73287109 -10.83086182 6.73287109 -10.82568359 5.50390625 C-9.75036993 -0.39341147 -5.03062011 -0.08681799 0 0 Z " fill="#F6F3F7" transform="translate(485.4375,503.625)"/>
<path d="M0 0 C0.68280029 0.00749268 1.36560059 0.01498535 2.0690918 0.02270508 C2.92929932 0.05001709 3.78950684 0.0773291 4.67578125 0.10546875 C7.41890625 0.16734375 10.16203125 0.22921875 12.98828125 0.29296875 C12.98828125 8.87296875 12.98828125 17.45296875 12.98828125 26.29296875 C8.87359375 26.38578125 8.87359375 26.38578125 4.67578125 26.48046875 C3.81557373 26.50778076 2.95536621 26.53509277 2.0690918 26.56323242 C1.3862915 26.5707251 0.70349121 26.57821777 0 26.5859375 C-0.69649658 26.60164795 -1.39299316 26.6173584 -2.1105957 26.63354492 C-4.66412197 26.17609415 -5.50299933 25.38505582 -7.01171875 23.29296875 C-7.39990234 21.1640625 -7.39990234 21.1640625 -7.41015625 18.73046875 C-7.41402344 17.85132813 -7.41789063 16.9721875 -7.421875 16.06640625 C-7.41027344 15.15117188 -7.39867187 14.2359375 -7.38671875 13.29296875 C-7.40412109 11.92011719 -7.40412109 11.92011719 -7.421875 10.51953125 C-7.41800781 9.64039063 -7.41414062 8.76125 -7.41015625 7.85546875 C-7.40508057 6.65083984 -7.40508057 6.65083984 -7.39990234 5.421875 C-6.61078324 1.09412747 -4.15670736 -0.09376032 0 0 Z " fill="#F9F6F9" transform="translate(537.01171875,503.70703125)"/>
<path d="M0 0 C2.5 0.25 2.5 0.25 4.5 2.25 C4.75 4.75 4.75 4.75 4.5 7.25 C3.84 7.91 3.18 8.57 2.5 9.25 C-0.5625 9 -0.5625 9 -3.5 8.25 C-3.995 7.26 -3.995 7.26 -4.5 6.25 C-26.28265644 5.35618279 -47.35112664 11.75240208 -63.75 26.5 C-68.4522693 30.86357226 -72.27981553 35.61239373 -75.87890625 40.9375 C-77.29080464 42.95158156 -78.69985379 44.58664302 -80.5 46.25 C-79.45484168 36.21059195 -71.06908236 27.50595187 -63.5 21.25 C-47.3624363 9.67856678 -30.67980517 2.95747593 -10.66992188 2.57714844 C-6.13957475 2.47341443 -3.92708285 0.39270829 0 0 Z " fill="#9938A2" transform="translate(348.5,406.75)"/>
<path d="M0 0 C1.18118408 0.00773437 2.36236816 0.01546875 3.5793457 0.0234375 C11.45496309 0.17927246 18.31549037 1.16549454 25.7734375 3.6171875 C29.57496107 4.7688555 32.75335052 4.65428037 36.6875 4.5 C37.6775 5.49 37.6775 5.49 38.6875 6.5 C38.3125 9.125 38.3125 9.125 37.6875 11.5 C33.9375 12.625 33.9375 12.625 31.6875 11.5 C31.1925 10.015 31.1925 10.015 30.6875 8.5 C27.97223488 7.62991504 25.402778 6.95905761 22.625 6.375 C21.88572266 6.20613281 21.14644531 6.03726562 20.38476562 5.86328125 C8.87920475 3.30648994 -4.02184938 1.37456996 -15.3125 5.5 C-16.93744716 5.93769621 -18.56245203 6.37517822 -20.1875 6.8125 C-30.53616254 9.97024899 -41.12694819 16.41655378 -47.25 25.5 C-47.930625 26.49 -48.61125 27.48 -49.3125 28.5 C-50.3025 28.5 -51.2925 28.5 -52.3125 28.5 C-48.90742898 18.00103102 -38.32064726 11.40737811 -29.16015625 6.25390625 C-19.51550602 1.61672338 -10.67584264 -0.17085009 0 0 Z " fill="#8F319B" transform="translate(329.3125,428.5)"/>
<path d="M0 0 C0.66 0 1.32 0 2 0 C1.66655043 19.6735244 -5.75311213 37.00716516 -18.4453125 51.84765625 C-20.68395216 54.94687849 -20.77005546 57.24423917 -21 61 C-22.25 63 -22.25 63 -24 64 C-27.34192692 63.75546876 -28.60543557 63.39456443 -31 61 C-31.25 58 -31.25 58 -31 55 C-29 53 -29 53 -25.65625 52.19921875 C-18.30258644 49.78727995 -14.52989151 41.96734588 -11.01171875 35.3984375 C-6.72023929 26.904392 -4.11111912 18.26134165 -2 9 C-1.77441406 8.02933594 -1.54882812 7.05867187 -1.31640625 6.05859375 C-0.85907402 4.04317792 -0.42575213 2.02232264 0 0 Z " fill="#7C2D91" transform="translate(339,551)"/>
<path d="M0 0 C2.00720923 0.28674418 4.0085944 0.61866701 6 1 C6.125 3.375 6.125 3.375 6 6 C5.34 6.66 4.68 7.32 4 8 C3.11957031 7.96777344 2.23914063 7.93554688 1.33203125 7.90234375 C-2.85717758 8.02512244 -5.74492664 9.55485573 -9.3125 11.5625 C-9.97258057 11.92529053 -10.63266113 12.28808105 -11.31274414 12.66186523 C-16.62123392 15.64500357 -21.38052697 19.0287139 -26 23 C-27.00933594 23.79470703 -27.00933594 23.79470703 -28.0390625 24.60546875 C-38.36026489 32.99393633 -45.81043119 45.43129357 -50 58 C-50.99 58 -51.98 58 -53 58 C-52.460443 52.71888151 -50.70243043 48.91033372 -48.125 44.375 C-47.52933228 43.32493774 -47.52933228 43.32493774 -46.92163086 42.25366211 C-42.80166234 35.26319104 -37.78011077 29.64799395 -32 24 C-31.22140625 23.20078125 -30.4428125 22.4015625 -29.640625 21.578125 C-22.37387839 14.50645883 -12.06017236 7.20920612 -2 5 C-1.855625 4.360625 -1.71125 3.72125 -1.5625 3.0625 C-1 1 -1 1 0 0 Z " fill="#9639A1" transform="translate(305,387)"/>
<path d="M0 0 C1.875 1.125 1.875 1.125 3 3 C3.42478586 7.07794425 3.31282587 8.53076119 1 12 C-2.625 12.1875 -2.625 12.1875 -6 12 C-6.39251953 13.06927734 -6.39251953 13.06927734 -6.79296875 14.16015625 C-8.05763419 17.13559888 -9.59886448 19.69796295 -11.3125 22.4375 C-15.20431124 28.99682352 -17.66178337 35.76641598 -20 43 C-20.66598005 45.00022874 -21.33242719 47.00030227 -22 49 C-22.66 49 -23.32 49 -24 49 C-23.38696935 36.94373046 -18.31795387 26.7760443 -11.94726562 16.73217773 C-9.00786801 11.87359222 -8.70295534 8.65597286 -9 3 C-6.89283346 -0.74607384 -4.00604938 -0.50075617 0 0 Z " fill="#892999" transform="translate(249,383)"/>
<path d="M0 0 C0.66 0 1.32 0 2 0 C-5.96633875 17.04336897 -23.51741093 28.15602326 -40.625 34.4375 C-44.02008731 35.64059744 -47.42882617 36.80410154 -50.8359375 37.97265625 C-53.32139162 38.92550979 -53.32139162 38.92550979 -55 42 C-57.5 42.375 -57.5 42.375 -60 42 C-62 39 -62 39 -61.6875 36.375 C-61 34 -61 34 -60 33 C-57.57157637 32.86873386 -55.5599253 32.79957931 -53.25390625 33.625 C-43.00692115 35.329871 -28.1419352 25.61586403 -20 20 C-13.06879435 14.66890157 -7.09761118 8.29691136 -1.5234375 1.58203125 C-1.02070313 1.05996094 -0.51796875 0.53789063 0 0 Z " fill="#803794" transform="translate(307,564)"/>
<path d="M0 0 C1 1 1 1 1.1875 3.4375 C1 6 1 6 -1 8 C-2.670625 8.2165625 -2.670625 8.2165625 -4.375 8.4375 C-14.55879507 10.8032455 -24.46504337 23.84159739 -30 32 C-34.24628243 39.38151032 -37.69114284 47.16430146 -41 55 C-41.66 55 -42.32 55 -43 55 C-42.4797669 49.48410382 -41.07911464 45.29127608 -38.5625 40.375 C-38.21050537 39.68204834 -37.85851074 38.98909668 -37.49584961 38.27514648 C-31.18538171 26.2796219 -22.23093855 15.61942879 -11.5625 7.25 C-8.87409408 4.88944846 -8.10931252 3.32793756 -7 0 C-4.31633121 -1.3418344 -2.84719317 -0.73004953 0 0 Z " fill="#973CA4" transform="translate(284,383)"/>
<path d="M0 0 C0.66 0 1.32 0 2 0 C-1.03866721 18.0380458 -14.79024989 34.202126 -29.3125 44.5625 C-39.84735744 52 -39.84735744 52 -44 52 C-44.12375 52.61875 -44.2475 53.2375 -44.375 53.875 C-45 56 -45 56 -47 58 C-50.53571429 57.46428571 -50.53571429 57.46428571 -52 56 C-52.125 53.5 -52.125 53.5 -52 51 C-50.4749184 49.4749184 -48.80884854 49.70478315 -46.6875 49.4375 C-32.37336723 46.62761334 -18.75625601 32.459832 -10.74609375 20.8359375 C-7.80443047 16.05820251 -5.37943669 11.0747278 -3 6 C-2.00466471 3.99767444 -1.00589533 1.99704146 0 0 Z " fill="#803493" transform="translate(324,557)"/>
<path d="M0 0 C12.14309986 3.4694571 21.95402983 18.65574668 27.90625 29.06640625 C35.96057817 43.89003115 35.96057817 43.89003115 36.625 51.75 C36.74875 52.8225 36.8725 53.895 37 55 C38.92064793 56.5899433 38.92064793 56.5899433 41 57 C40.67 58.65 40.34 60.3 40 62 C37.625 62.625 37.625 62.625 35 63 C34.34 62.34 33.68 61.68 33 61 C33.20625 60.071875 33.4125 59.14375 33.625 58.1875 C35.54519239 46.49832882 26.1895225 31.34705025 19.67285156 22.12109375 C14.42346986 15.22298928 8.44496649 9.27657377 1.80078125 3.70703125 C1.20652344 3.14371094 0.61226563 2.58039063 0 2 C0 1.34 0 0.68 0 0 Z " fill="#953BA0" transform="translate(354,469)"/>
<path d="M0 0 C14.90949898 6.87720633 29.4758917 14.34571488 44 22 C44 23.32 44 24.64 44 26 C38.76983035 24.4245282 34.0202766 22.19519401 29.13671875 19.7890625 C28.3041304 19.37965424 27.47154205 18.97024597 26.61372375 18.5484314 C24.86365565 17.68498764 23.11474746 16.81918934 21.36694336 15.95117188 C18.6850251 14.62377507 15.99413364 13.3158556 13.30273438 12.0078125 C11.60097298 11.16525214 9.89978033 10.32154187 8.19921875 9.4765625 C7.39199875 9.08787994 6.58477875 8.69919739 5.75309753 8.29873657 C5.01175064 7.92509979 4.27040375 7.55146301 3.5065918 7.16650391 C2.85184372 6.8438858 2.19709564 6.5212677 1.52250671 6.18887329 C0 5 0 5 -0.78166199 2.92709351 C-0.85371353 2.29115265 -0.92576508 1.65521179 -1 1 C-0.67 0.67 -0.34 0.34 0 0 Z " fill="#E9E4EA" transform="translate(216,508)"/>
<path d="M0 0 C2.625 0.375 2.625 0.375 5 1 C5.79953138 4.28696233 6.09658936 5.71023192 5 9 C8.39319828 23.46281234 15.32972602 36.63005512 25.1171875 47.73046875 C26.80966556 49.77057197 27.94467223 51.58385484 29 54 C15.98227922 48.01354272 9.03439206 32.1527245 4.19140625 19.47265625 C3 16 3 16 2.02734375 12.18359375 C1.27935563 8.73738271 1.27935563 8.73738271 -2 7 C-2.3125 4.5 -2.3125 4.5 -2 2 C-1.34 1.34 -0.68 0.68 0 0 Z " fill="#86369F" transform="translate(170,454)"/>
<path d="M0 0 C6.59950894 0.46953028 11.75977415 1.73314898 17.75 4.5 C18.90918945 5.02424561 18.90918945 5.02424561 20.09179688 5.55908203 C27.96739315 9.24445721 35.81546602 13.81546602 42 20 C44.32548007 20.69356423 46.65880445 21.36149212 49 22 C50 23 50 23 50.25 25.9375 C50.1675 26.948125 50.085 27.95875 50 29 C47 31 47 31 44.9375 30.75 C43 30 43 30 41 28 C41.06445312 27.22398437 41.12890625 26.44796875 41.1953125 25.6484375 C41.26963455 22.80793433 41.26963455 22.80793433 38.8671875 20.7890625 C27.91049906 12.86477347 16.90513241 7.03650174 3.66796875 3.921875 C2.78753906 3.61765625 1.90710938 3.3134375 1 3 C0.67 2.01 0.34 1.02 0 0 Z " fill="#93399D" transform="translate(342,446)"/>
<path d="M0 0 C3.29714793 0.32971479 4.6226839 0.6226839 7 3 C7 3.99 7 4.98 7 6 C7.53367188 6.17015625 8.06734375 6.3403125 8.6171875 6.515625 C12.72703417 7.85239174 16.71822753 9.28853923 20.6875 11 C29.39904576 14.53610178 38.75981604 16.13892761 48.109375 16.7890625 C50 17 50 17 52 18 C52 18.66 52 19.32 52 20 C37.29476963 20.7877802 21.75616114 16.71774882 8.7734375 9.81640625 C6.77658245 8.74735574 6.77658245 8.74735574 3.375 9 C2.26125 9 1.1475 9 0 9 C-2 7 -2 7 -2.25 4.5 C-2 2 -2 2 0 0 Z " fill="#7E3495" transform="translate(178,539)"/>
<path d="M0 0 C0.66 0.33 1.32 0.66 2 1 C6.69996952 15.78603551 7.12170815 30.81100706 5.1484375 46.1171875 C4.95858739 48.52528628 5.48707231 50.65518771 6 53 C4 55 4 55 1.5 55.25 C-1 55 -1 55 -3 53 C-2.8125 50.5 -2.8125 50.5 -2 48 C-1.01 47.34 -0.02 46.68 1 46 C2.6083718 41.24926018 2.19100762 35.90209373 2.1875 30.9375 C2.18814453 29.9988208 2.18878906 29.0601416 2.18945312 28.09301758 C2.14368324 22.06959646 1.65017224 16.3788384 0.4453125 10.46484375 C-0.1939091 6.9266961 -0.13788175 3.58492546 0 0 Z " fill="#842F96" transform="translate(354,526)"/>
<path d="M0 0 C2.91714801 -0.27570606 5.5886826 -0.3722561 8.5 -0.3125 C9.67755859 -0.31733398 9.67755859 -0.31733398 10.87890625 -0.32226562 C16.73296131 -0.26703869 16.73296131 -0.26703869 19 2 C19 4.31 19 6.62 19 9 C12.07 9 5.14 9 -2 9 C-2 3 -2 3 0 0 Z " fill="#F1EDF2" transform="translate(586,504)"/>
<path d="M0 0 C0.66 0 1.32 0 2 0 C2 0.99 2 1.98 2 3 C-13.04618643 10.15349592 -27.28310099 13.87599471 -44 13 C-44.33 13.99 -44.66 14.98 -45 16 C-46.66611905 16.042721 -48.33382885 16.04063832 -50 16 C-51 15 -51 15 -51.0625 11.9375 C-51.041875 10.968125 -51.02125 9.99875 -51 9 C-49.34385343 8.61781233 -47.67542976 8.28604898 -46 8 C-45.67 8.33 -45.34 8.66 -45 9 C-30.14989161 10.19348697 -14.39934976 7.7471903 -1 1 C-0.67 0.67 -0.34 0.34 0 0 Z " fill="#8D4CA1" transform="translate(264,575)"/>
<path d="M0 0 C2.4375 0.1875 2.4375 0.1875 3.4375 1.1875 C3.458125 2.156875 3.47875 3.12625 3.5 4.125 C4.89454088 14.21491343 18.2358843 25.2757753 26.05029297 31.46484375 C28.47370157 33.26707386 30.94370291 34.98402567 33.453125 36.6640625 C34.10796875 37.16679688 34.7628125 37.66953125 35.4375 38.1875 C35.4375 38.8475 35.4375 39.5075 35.4375 40.1875 C22.50251242 36.54304364 9.29145636 22.45278345 2.8515625 10.96484375 C1.02639714 8.67078231 -0.86294465 8.21359526 -3.5625 7.1875 C-4.5 4.6875 -4.5 4.6875 -4.5625 2.1875 C-2.5625 0.1875 -2.5625 0.1875 0 0 Z " fill="#863C9E" transform="translate(163.5625,485.8125)"/>
<path d="M0 0 C0 1.32 0 2.64 0 4 C-0.73935791 4.38220703 -1.47871582 4.76441406 -2.24047852 5.15820312 C-5.05587239 6.61419212 -7.87089323 8.07089877 -10.68557739 9.52825928 C-11.93310725 10.17414396 -13.18072636 10.81985628 -14.42843628 11.46539307 C-22.82178708 15.80901291 -31.18289224 20.20323309 -39.47265625 24.7421875 C-42 26 -42 26 -44 26 C-44 24.68 -44 23.36 -44 22 C-43.18958252 21.58226318 -42.37916504 21.16452637 -41.54418945 20.73413086 C-38.47030468 19.14895738 -35.39697014 17.56272632 -32.32397461 15.97583008 C-31.00647737 15.29573349 -29.68877656 14.61603107 -28.37084961 13.93676758 C-26.45109109 12.94722399 -24.53200774 11.95638686 -22.61328125 10.96484375 C-21.66378098 10.4746022 -21.66378098 10.4746022 -20.69509888 9.97445679 C-17.51694531 8.32740673 -14.35399658 6.65776446 -11.21240234 4.94189453 C-10.61477585 4.61580704 -10.01714935 4.28971954 -9.40141296 3.95375061 C-7.76556969 3.05738689 -6.1330413 2.15498122 -4.50073242 1.25219727 C-2 0 -2 0 0 0 Z " fill="#EEEBEF" transform="translate(337,525)"/>
<path d="M0 0 C1.01513672 -0.01740234 1.01513672 -0.01740234 2.05078125 -0.03515625 C4.86070749 -0.01852947 7.01415763 0.09159195 9.46875 1.5234375 C10.5 3.375 10.5 3.375 10.5 9.375 C3.57 9.375 -3.36 9.375 -10.5 9.375 C-10.5 3.375 -10.5 3.375 -9.46875 1.5234375 C-6.43967345 -0.24352382 -3.40466783 -0.05836573 0 0 Z " fill="#DFDCE3" transform="translate(846.5,503.625)"/>
<path d="M0 0 C1.01513672 -0.01740234 1.01513672 -0.01740234 2.05078125 -0.03515625 C4.86070749 -0.01852947 7.01415763 0.09159195 9.46875 1.5234375 C10.5 3.375 10.5 3.375 10.5 9.375 C3.57 9.375 -3.36 9.375 -10.5 9.375 C-10.5 3.375 -10.5 3.375 -9.46875 1.5234375 C-6.43967345 -0.24352382 -3.40466783 -0.05836573 0 0 Z " fill="#EAE7EC" transform="translate(705.5,503.625)"/>
<path d="M0 0 C5.27911062 1.57265813 10.00410848 3.87283101 14.8984375 6.3515625 C16.15087753 6.97990494 16.15087753 6.97990494 17.42861938 7.62094116 C20.07932433 8.95186436 22.72718353 10.28834106 25.375 11.625 C27.17820004 12.5316188 28.98158354 13.4378728 30.78515625 14.34375 C35.19223959 16.55828184 39.59678029 18.77779658 44 21 C44 22.32 44 23.64 44 25 C38.72088938 23.42734187 33.99589152 21.12716899 29.1015625 18.6484375 C28.26660248 18.22954254 27.43164246 17.81064758 26.57138062 17.37905884 C23.92067567 16.04813564 21.27281647 14.71165894 18.625 13.375 C16.82179996 12.4683812 15.01841646 11.5621272 13.21484375 10.65625 C8.80776041 8.44171816 4.40321971 6.22220342 0 4 C0 2.68 0 1.36 0 0 Z " fill="#F5F3F5" transform="translate(216,525)"/>
<path d="M0 0 C0 1.32 0 2.64 0 4 C-1.70313354 4.84763916 -1.70313354 4.84763916 -3.44067383 5.71240234 C-7.65164844 7.80884184 -11.86130018 9.9079257 -16.07055664 12.0078125 C-17.89278749 12.91641305 -19.71537665 13.82429536 -21.53833008 14.73144531 C-24.15800927 16.03522249 -26.77639048 17.34157428 -29.39453125 18.6484375 C-30.21025101 19.05371674 -31.02597076 19.45899597 -31.8664093 19.8765564 C-32.62697128 20.25679962 -33.38753326 20.63704285 -34.17114258 21.02880859 C-34.83954666 21.36190033 -35.50795074 21.69499207 -36.1966095 22.03817749 C-38.24679549 23.09383766 -38.24679549 23.09383766 -41 25 C-41.99 25 -42.98 25 -44 25 C-43.87841797 23.21630859 -43.87841797 23.21630859 -43 21 C-40.39892578 19.26416016 -40.39892578 19.26416016 -36.9453125 17.5390625 C-36.32913055 17.22601166 -35.71294861 16.91296082 -35.07809448 16.59042358 C-33.1000291 15.58881904 -31.11309839 14.60651511 -29.125 13.625 C-27.18113187 12.64967603 -25.23925731 11.67046714 -23.29754639 10.69085693 C-22.0247675 10.04986259 -20.750722 9.41137687 -19.47540283 8.77545166 C-14.61964277 6.34717684 -9.87578954 3.74905491 -5.16748047 1.04443359 C-3 0 -3 0 0 0 Z " fill="#EDEDEF" transform="translate(337,509)"/>
<path d="M0 0 C2 0.6875 2 0.6875 4 2.6875 C3.46428571 6.22321429 3.46428571 6.22321429 2 7.6875 C1.6176682 20.52292458 6.17234499 35.35328123 12.1796875 46.55859375 C13.15821408 49.09810322 12.7521295 50.14031917 12 52.6875 C8.03552458 46.94608827 5.46116754 41.2478226 3.3125 34.625 C3.00924805 33.71121582 2.70599609 32.79743164 2.39355469 31.85595703 C0.23428481 25.0854253 -0.98464792 18.59792619 -1.515625 11.5234375 C-2.04957694 8.397235 -2.69822569 7.70857013 -5 5.6875 C-4.8125 3.0625 -4.8125 3.0625 -4 0.6875 C-2 -0.3125 -2 -0.3125 0 0 Z " fill="#8E43A3" transform="translate(186,436.3125)"/>
<path d="M0 0 C1.67542976 0.28604898 3.34385343 0.61781233 5 1 C5 2.65 5 4.3 5 6 C3.1746875 6.4021875 3.1746875 6.4021875 1.3125 6.8125 C-14.99081041 12.28116948 -25.80982247 29.96288375 -34 44 C-35.10631665 41.26636874 -35.08866332 40.21669579 -33.953125 37.44140625 C-26.17338294 24.29078721 -16.87348745 13.39904998 -4 5 C-3.34 5 -2.68 5 -2 5 C-1.855625 4.360625 -1.71125 3.72125 -1.5625 3.0625 C-1 1 -1 1 0 0 Z " fill="#94339E" transform="translate(296,406)"/>
<path d="M0 0 C1.875 0.6875 1.875 0.6875 2.875 1.6875 C2.91563832 3.35367115 2.917721 5.02138095 2.875 6.6875 C2.24980469 6.87054688 1.62460938 7.05359375 0.98046875 7.2421875 C-1.44655808 8.59298961 -1.44655808 8.59298961 -2.13671875 11.8203125 C-2.38267657 13.14737208 -2.60660078 14.47863798 -2.8125 15.8125 C-2.93278564 16.51375 -3.05307129 17.215 -3.17700195 17.9375 C-4.39396942 25.47917573 -4.83093161 33.06200255 -5.125 40.6875 C-6.115 40.6875 -7.105 40.6875 -8.125 40.6875 C-8.48421223 31.9333648 -7.85493052 24.55068689 -5.78125 16.03515625 C-4.96494292 11.87101837 -5.0130557 8.01404887 -5.3125 3.796875 C-5.250625 3.10078125 -5.18875 2.4046875 -5.125 1.6875 C-2.125 -0.3125 -2.125 -0.3125 0 0 Z " fill="#873199" transform="translate(209.125,406.3125)"/>
<path d="M0 0 C1.65 0 3.3 0 5 0 C5.33 0.99 5.66 1.98 6 3 C24.1200398 2.65530491 24.1200398 2.65530491 42 0 C42 0.99 42 1.98 42 3 C32.24624624 5.51709774 23.20882295 6.28781336 13.14770508 6.06445312 C8.04821558 5.94452898 8.04821558 5.94452898 3.0078125 6.6171875 C2.34523437 6.74351562 1.68265625 6.86984375 1 7 C0.34 6.34 -0.32 5.68 -1 5 C-0.625 2.375 -0.625 2.375 0 0 Z " fill="#7D2D94" transform="translate(206,565)"/>
<path d="M0 0 C4.98590811 0.58657742 8.80727492 2.8629923 13.125 5.25 C19.6381251 8.78136463 26.18846809 12.07236534 33 15 C33 16.32 33 17.64 33 19 C26.34054881 16.87029617 20.05764032 14.05215799 13.6875 11.1875 C12.48287109 10.66607422 11.27824219 10.14464844 10.03710938 9.60742188 C8.89435547 9.09115234 7.75160156 8.57488281 6.57421875 8.04296875 C5.52838623 7.57914795 4.48255371 7.11532715 3.4050293 6.63745117 C1 5 1 5 0.15161133 2.30981445 C0.10157959 1.54757568 0.05154785 0.78533691 0 0 Z " fill="#E6E2E9" transform="translate(216,493)"/>
<path d="M0 0 C0 1.32 0 2.64 0 4 C-0.65484375 4.31227539 -1.3096875 4.62455078 -1.984375 4.94628906 C-4.98994981 6.38009258 -7.99497806 7.81503813 -11 9.25 C-12.02996094 9.74113281 -13.05992187 10.23226563 -14.12109375 10.73828125 C-18.64721148 12.9004394 -23.16120263 15.07097255 -27.625 17.359375 C-31 19 -31 19 -33 19 C-33 17.68 -33 16.36 -33 15 C-28.7863155 12.85609557 -24.56875995 10.72008435 -20.34741211 8.59130859 C-18.91174786 7.86593059 -17.47716773 7.13840278 -16.04370117 6.40869141 C-13.98376805 5.36054267 -11.9200674 4.32017222 -9.85546875 3.28125 C-9.21473923 2.95314331 -8.5740097 2.62503662 -7.91386414 2.2869873 C-5.06740706 0.86322163 -3.22961823 0 0 0 Z " fill="#EBE8ED" transform="translate(337,493)"/>
<path d="M0 0 C1.21875 1.640625 1.21875 1.640625 2 4 C0.65625 6.671875 0.65625 6.671875 -1.5 9.75 C-7.52856271 18.78498413 -10.60861292 28.74660075 -14 39 C-14.66 39 -15.32 39 -16 39 C-15.37172578 26.6439404 -9.02776374 9.02776374 0 0 Z " fill="#9241A1" transform="translate(241,393)"/>
<path d="M0 0 C0.66 0 1.32 0 2 0 C1.73298078 15.75413394 -3.14329518 28.57341223 -11 42 C-11.99 41.34 -12.98 40.68 -14 40 C-13.46890625 39.01902344 -12.9378125 38.03804687 -12.390625 37.02734375 C-7.52809021 27.82301371 -4.24544057 19.21084554 -2 9 C-1.77570313 8.030625 -1.55140625 7.06125 -1.3203125 6.0625 C-0.86032135 4.04610044 -0.42607127 2.02383851 0 0 Z " fill="#8C3D9D" transform="translate(339,551)"/>
<path d="M0 0 C0.99 0 1.98 0 3 0 C4.67802762 6.77727661 5.33658818 13.42679587 5.65795898 20.37695312 C5.7985542 23.28759598 6.00210803 26.00922735 6.65234375 28.85546875 C6.76707031 29.56316406 6.88179688 30.27085937 7 31 C6.34 31.66 5.68 32.32 5 33 C2.375 32.625 2.375 32.625 0 32 C-0.042721 30.33388095 -0.04063832 28.66617115 0 27 C0.33 26.67 0.66 26.34 1 26 C1.10132521 23.13607269 1.13860478 20.30130618 1.125 17.4375 C1.13080078 16.25704102 1.13080078 16.25704102 1.13671875 15.05273438 C1.12830378 9.94905541 0.72908465 5.05151509 0 0 Z " fill="#9440A1" transform="translate(372,529)"/>
<path d="M0 0 C10.00761784 7.17937802 16.58348249 18.34364614 20 30 C20.99 30.33 21.98 30.66 23 31 C22.67 32.32 22.34 33.64 22 35 C20.02 35.495 20.02 35.495 18 36 C17.87625 35.29875 17.7525 34.5975 17.625 33.875 C15.19814043 22.71144596 8.88401598 13.58703175 1.50390625 5.05859375 C0 3 0 3 0 0 Z " fill="#912FA0" transform="translate(354,484)"/>
<path d="M0 0 C1.8125 1.125 1.8125 1.125 3 3 C3.39769128 6.18153026 3.55198782 8.12844028 1.8125 10.875 C-0.65507108 12.40659584 -2.14519831 12.42822025 -5 12 C-6.8125 10.875 -6.8125 10.875 -8 9 C-8.39769128 5.81846974 -8.55198782 3.87155972 -6.8125 1.125 C-4.34492892 -0.40659584 -2.85480169 -0.42822025 0 0 Z " fill="#7B2C93" transform="translate(172,518)"/>
<path d="M0 0 C0.66 0.66 1.32 1.32 2 2 C1.443125 2.57105469 0.88625 3.14210938 0.3125 3.73046875 C-8.34587552 12.92999274 -14.88901424 23.01864019 -19 35 C-19.99 35 -20.98 35 -22 35 C-21.46032472 29.71772373 -19.70091223 25.91196827 -17.125 21.375 C-16.73441406 20.68075928 -16.34382813 19.98651855 -15.94140625 19.27124023 C-11.86236573 12.30953923 -6.71651055 6.64505417 -1 1 C-0.67 0.67 -0.34 0.34 0 0 Z " fill="#9534A3" transform="translate(274,410)"/>
<path d="M0 0 C2.5 0.25 2.5 0.25 4.5 2.25 C4.75 4.75 4.75 4.75 4.5 7.25 C3.84 7.91 3.18 8.57 2.5 9.25 C-0.5625 9 -0.5625 9 -3.5 8.25 C-3.83 7.59 -4.16 6.93 -4.5 6.25 C-10.44 5.92 -16.38 5.59 -22.5 5.25 C-18.42927443 2.53618295 -14.59106076 2.834874 -9.86132812 2.68359375 C-5.6470014 2.49334936 -3.7265288 0.37265288 0 0 Z " fill="#8D3097" transform="translate(348.5,406.75)"/>
<path d="M0 0 C0.99 0.495 0.99 0.495 2 1 C2.83793607 3.63613466 3.52175844 6.18279671 4.125 8.875 C4.30385742 9.66696777 4.48271484 10.45893555 4.66699219 11.27490234 C6.49959576 20.17786503 6.36089301 28.95762505 6 38 C5.67 38 5.34 38 5 38 C4.67 36.35 4.34 34.7 4 33 C3.67 33 3.34 33 3 33 C2.91697632 32.13048706 2.91697632 32.13048706 2.83227539 31.2434082 C2.57832383 28.59951088 2.32044806 25.95601028 2.0625 23.3125 C1.93198242 21.94448242 1.93198242 21.94448242 1.79882812 20.54882812 C1.71181641 19.66259766 1.62480469 18.77636719 1.53515625 17.86328125 C1.456604 17.05157471 1.37805176 16.23986816 1.29711914 15.40356445 C0.9879173 12.90225622 0.49964443 10.46931708 0 8 C-0.11678799 5.32321927 -0.0454506 2.68158543 0 0 Z " fill="#954AA4" transform="translate(354,526)"/>
<path d="M0 0 C2 0.6875 2 0.6875 4 2.6875 C3.46428571 6.22321429 3.46428571 6.22321429 2 7.6875 C1.92686433 10.21799402 1.90752473 12.72054837 1.9375 15.25 C1.94201172 15.96091797 1.94652344 16.67183594 1.95117188 17.40429688 C1.96299136 19.16540013 1.98092737 20.92646036 2 22.6875 C1.34 22.3575 0.68 22.0275 0 21.6875 C-0.61123854 18.40039494 -0.96058215 15.11036315 -1.33984375 11.7890625 C-2.03184005 8.53790827 -2.60508536 7.79291946 -5 5.6875 C-4.8125 3.0625 -4.8125 3.0625 -4 0.6875 C-2 -0.3125 -2 -0.3125 0 0 Z " fill="#833297" transform="translate(186,436.3125)"/>
<path d="M0 0 C6.27 2.97 12.54 5.94 19 9 C18.67 10.32 18.34 11.64 18 13 C13.37324343 11.6077541 9.35313769 9.70479016 5.125 7.375 C3.97257813 6.74335937 2.82015625 6.11171875 1.6328125 5.4609375 C0.76398438 4.97882812 -0.10484375 4.49671875 -1 4 C-0.67 2.68 -0.34 1.36 0 0 Z " fill="#E2DCE5" transform="translate(216,508)"/>
<path d="M0 0 C0 1.32 0 2.64 0 4 C-2.93342898 5.34242421 -5.87236252 6.67234067 -8.8125 8 C-10.06256836 8.57234375 -10.06256836 8.57234375 -11.33789062 9.15625 C-12.54155273 9.69765625 -12.54155273 9.69765625 -13.76953125 10.25 C-14.50792236 10.58515625 -15.24631348 10.9203125 -16.00708008 11.265625 C-18 12 -18 12 -21 12 C-20.73193359 10.13378906 -20.73193359 10.13378906 -20 8 C-18.37353516 6.81152344 -18.37353516 6.81152344 -16.2890625 5.859375 C-15.53882813 5.51132812 -14.78859375 5.16328125 -14.015625 4.8046875 C-13.22671875 4.45664062 -12.4378125 4.10859375 -11.625 3.75 C-10.45324219 3.20472656 -10.45324219 3.20472656 -9.2578125 2.6484375 C-3.44319784 0 -3.44319784 0 0 0 Z " fill="#ECEAF0" transform="translate(337,477)"/>
<path d="M0 0 C4.73789165 1.44323469 8.98858151 3.37226733 13.375 5.625 C14.01566406 5.94984375 14.65632812 6.2746875 15.31640625 6.609375 C16.87947501 7.40257407 18.44000622 8.20077031 20 9 C20 9.99 20 10.98 20 12 C15.68654549 11.30853019 11.77264682 9.90245658 7.75 8.25 C7.11320313 8.01023437 6.47640625 7.77046875 5.8203125 7.5234375 C3.984375 6.765625 3.984375 6.765625 1 5 C0.078125 2.296875 0.078125 2.296875 0 0 Z " fill="#EEE9F0" transform="translate(216,477)"/>
<path d="M0 0 C0.66 0 1.32 0 2 0 C0.30439579 10.06539519 -5.40107221 18.65808165 -11 27 C-12.32 26.67 -13.64 26.34 -15 26 C-14.45472656 25.34257813 -14.45472656 25.34257813 -13.8984375 24.671875 C-9.30320446 18.87481178 -6.168927 12.65740967 -3 6 C-2.00371746 3.99814558 -1.00473932 1.99762331 0 0 Z " fill="#8D3AA0" transform="translate(324,557)"/>
<path d="M0 0 C0.96679688 0.20496094 1.93359375 0.40992188 2.9296875 0.62109375 C9.66034724 2.02212391 16.27183661 3.30555634 23.14453125 3.7890625 C25 4 25 4 27 5 C27 5.66 27 6.32 27 7 C21.00857121 7.3209694 15.49967453 6.70895426 9.625 5.625 C8.92310547 5.49891357 8.22121094 5.37282715 7.49804688 5.24291992 C4.09674387 4.58443095 1.92132008 3.94754672 -1 2 C-0.67 1.34 -0.34 0.68 0 0 Z " fill="#8A45A0" transform="translate(203,552)"/>
<path d="M0 0 C4.35970831 1.34849837 8.31341438 3.04907846 12.375 5.125 C13.43460938 5.66382813 14.49421875 6.20265625 15.5859375 6.7578125 C16.38257813 7.16773438 17.17921875 7.57765625 18 8 C18 9.32 18 10.64 18 12 C13.26210835 10.55676531 9.01141849 8.62773267 4.625 6.375 C3.98433594 6.05015625 3.34367188 5.7253125 2.68359375 5.390625 C1.12052499 4.59742593 -0.44000622 3.79922969 -2 3 C-1.34 2.67 -0.68 2.34 0 2 C0 1.34 0 0.68 0 0 Z " fill="#EBE8EB" transform="translate(242,538)"/>
<path d="M0 0 C3.20285942 0.21352396 5.81448135 1.07195818 8.8125 2.1875 C7.884375 3.0846875 7.884375 3.0846875 6.9375 4 C4.67573046 6.19561144 4.67573046 6.19561144 2.8125 9.1875 C0.3125 9.5625 0.3125 9.5625 -2.1875 9.1875 C-4.1875 6.1875 -4.1875 6.1875 -3.875 3.5625 C-2.91610447 0.24995181 -2.91610447 0.24995181 0 0 Z " fill="#793291" transform="translate(249.1875,596.8125)"/>
<path d="M0 0 C2.62594784 0.1136515 5.25011547 0.24039054 7.875 0.375 C8.62136719 0.4059375 9.36773437 0.436875 10.13671875 0.46875 C15.7734375 0.7734375 15.7734375 0.7734375 18 3 C17.625 5.625 17.625 5.625 17 8 C13.25 9.125 13.25 9.125 11 8 C10.67 7.01 10.34 6.02 10 5 C7.93241371 4.04998712 7.93241371 4.04998712 5.5 3.4375 C3.03125 2.74609375 3.03125 2.74609375 1 2 C0.67 1.34 0.34 0.68 0 0 Z " fill="#8D3397" transform="translate(350,432)"/>
<path d="M0 0 C1 1 1 1 1.1875 3.4375 C1 6 1 6 -1 8 C-4.625 8.125 -4.625 8.125 -8 8 C-9 5 -9 5 -8.1875 2.375 C-6.11306547 -1.77386906 -4.08829071 -1.04827967 0 0 Z " fill="#90309A" transform="translate(284,383)"/>
<path d="M0 0 C2.625 0.375 2.625 0.375 5 1 C5.79953138 4.28696233 6.09658936 5.71023192 5 9 C4.65179959 10.66362417 4.31595508 12.32995171 4 14 C2 12 2 12 1 9 C0.01 8.34 -0.98 7.68 -2 7 C-2.3125 4.5 -2.3125 4.5 -2 2 C-1.34 1.34 -0.68 0.68 0 0 Z " fill="#843399" transform="translate(170,454)"/>
<path d="M0 0 C0.33 0.66 0.66 1.32 1 2 C1.66 2 2.32 2 3 2 C2.34 9.59 1.68 17.18 1 25 C0.01 25 -0.98 25 -2 25 C-2.22588024 16.40400201 -1.91958262 8.39817396 0 0 Z " fill="#964EA7" transform="translate(203,422)"/>
<path d="M0 0 C3 0.125 3 0.125 4 1.125 C4.25 4.0625 4.25 4.0625 4 7.125 C1 9.125 1 9.125 -1.0625 8.875 C-3 8.125 -3 8.125 -5 6.125 C-4.27477017 0.17811542 -4.27477017 0.17811542 0 0 Z " fill="#8A3095" transform="translate(388,467.875)"/>
<path d="M0 0 C4.70588235 0.70588235 4.70588235 0.70588235 6 2 C7.51469448 2.23192865 9.03754562 2.41215238 10.5625 2.5625 C11.38878906 2.64628906 12.21507812 2.73007812 13.06640625 2.81640625 C13.70449219 2.87699219 14.34257812 2.93757812 15 3 C11.5647952 5.29013653 10.014669 5.17842973 6 5 C5.67 5.99 5.34 6.98 5 8 C3.33388095 8.042721 1.66617115 8.04063832 0 8 C-1 7 -1 7 -1.125 4 C-1 1 -1 1 0 0 Z " fill="#782D8F" transform="translate(214,583)"/>
<path d="M0 0 C0.66 0 1.32 0 2 0 C3.25390625 1.64453125 3.25390625 1.64453125 4.5625 3.8125 C4.99691406 4.52019531 5.43132812 5.22789062 5.87890625 5.95703125 C7 8 7 8 8 11 C8.99 11.66 9.98 12.32 11 13 C10.67 14.65 10.34 16.3 10 18 C8.35 18 6.7 18 5 18 C5.1546875 16.5459375 5.1546875 16.5459375 5.3125 15.0625 C5.35781347 10.62178041 3.38137729 7.60994501 1.09375 3.91796875 C0 2 0 2 0 0 Z " fill="#9940A6" transform="translate(354,502)"/>
<path d="M0 0 C0 0.99 0 1.98 0 3 C-11.48433389 5.88395829 -22.20059132 6.34293222 -34 6 C-34 5.67 -34 5.34 -34 5 C-32.24623047 4.92652344 -32.24623047 4.92652344 -30.45703125 4.8515625 C-28.90883196 4.77649829 -27.36065599 4.70095205 -25.8125 4.625 C-25.04357422 4.5940625 -24.27464844 4.563125 -23.48242188 4.53125 C-19.21945615 4.31169812 -15.92401473 3.80792302 -12 2 C-10.46788617 1.58770359 -8.92569497 1.21071747 -7.375 0.875 C-6.24191406 0.62363281 -6.24191406 0.62363281 -5.0859375 0.3671875 C-3 0 -3 0 0 0 Z " fill="#8C489F" transform="translate(248,565)"/>
<path d="M0 0 C2.4375 0.1875 2.4375 0.1875 3.4375 1.1875 C3.50929964 2.70678038 3.52142007 4.22917482 3.5 5.75 C3.49097656 6.57628906 3.48195312 7.40257812 3.47265625 8.25390625 C3.46105469 8.89199219 3.44945312 9.53007812 3.4375 10.1875 C0 9 0 9 -3.5625 7.1875 C-4.625 4.625 -4.625 4.625 -4.5625 2.1875 C-2.5625 0.1875 -2.5625 0.1875 0 0 Z " fill="#81309A" transform="translate(163.5625,485.8125)"/>
<path d="M0 0 C1.68915269 3.26831405 3.14169254 6.60702696 4.5625 10 C4.99691406 11.03125 5.43132812 12.0625 5.87890625 13.125 C6.77672798 15.42742784 7.48454211 17.59066876 8 20 C7.01 20.33 6.02 20.66 5 21 C3.77233849 18.25722453 2.567837 15.50787501 1.375 12.75 C1.024375 11.97269531 0.67375 11.19539063 0.3125 10.39453125 C-0.00976562 9.64042969 -0.33203125 8.88632812 -0.6640625 8.109375 C-1.11966553 7.07248535 -1.11966553 7.07248535 -1.58447266 6.01464844 C-2.12716797 3.38343709 -1.38801599 2.23308567 0 0 Z " fill="#8D41A2" transform="translate(175,466)"/>
<path d="M0 0 C0.99 0.33 1.98 0.66 3 1 C2.64808594 1.52207031 2.29617188 2.04414063 1.93359375 2.58203125 C-2.14306463 8.65976476 -6.09129016 14.81313679 -10 21 C-10.69921875 19.37109375 -10.69921875 19.37109375 -11 17 C-9.70703125 14.16015625 -9.70703125 14.16015625 -7.8125 11.0625 C-7.20019531 10.04285156 -6.58789062 9.02320313 -5.95703125 7.97265625 C-4.11170781 5.16967993 -2.14288572 2.5800154 0 0 Z " fill="#9837A5" transform="translate(272,429)"/>
<path d="M0 0 C0.66 0 1.32 0 2 0 C2 0.99 2 1.98 2 3 C3.32 3.66 4.64 4.32 6 5 C5.67 6.65 5.34 8.3 5 10 C2.625 10.625 2.625 10.625 0 11 C-0.66 10.34 -1.32 9.68 -2 9 C-1.6875 6.625 -1.6875 6.625 -1 4 C-0.814375 3.236875 -0.62875 2.47375 -0.4375 1.6875 C-0.293125 1.130625 -0.14875 0.57375 0 0 Z " fill="#8B2599" transform="translate(389,521)"/>
<path d="M0 0 C0.33 0.66 0.66 1.32 1 2 C0.0821875 2.19335938 -0.835625 2.38671875 -1.78125 2.5859375 C-8.2183086 3.95178397 -14.6310874 5.34408272 -21 7 C-21.33 6.01 -21.66 5.02 -22 4 C-19.93847611 3.35105763 -17.87573742 2.7059736 -15.8125 2.0625 C-14.66394531 1.70285156 -13.51539063 1.34320313 -12.33203125 0.97265625 C-3.83662489 -1.50724549 -3.83662489 -1.50724549 0 0 Z " fill="#9B46A3" transform="translate(329,411)"/>
<path d="M0 0 C2.67460177 1.9895539 5.33798085 3.99365059 8 6 C9.25490234 6.93392578 9.25490234 6.93392578 10.53515625 7.88671875 C11.34855469 8.50160156 12.16195312 9.11648438 13 9.75 C13.763125 10.32234375 14.52625 10.8946875 15.3125 11.484375 C15.869375 11.98453125 16.42625 12.4846875 17 13 C17 13.66 17 14.32 17 15 C12.20459846 13.67663993 8.97153929 11.76269194 5.125 8.625 C4.15820312 7.85414063 3.19140625 7.08328125 2.1953125 6.2890625 C0 4 0 4 0 0 Z " fill="#8D41A3" transform="translate(182,511)"/>
<path d="M0 0 C2.33944736 0.28730055 4.6739143 0.61936779 7 1 C6.25 5.75 6.25 5.75 4 8 C0.46428571 7.46428571 0.46428571 7.46428571 -1 6 C-1.125 3.5 -1.125 3.5 -1 1 C-0.67 0.67 -0.34 0.34 0 0 Z " fill="#76308D" transform="translate(273,607)"/>
<path d="M0 0 C1.12642186 3.37926557 0.96344705 3.72928278 -0.43359375 6.79296875 C-0.75263672 7.50517578 -1.07167969 8.21738281 -1.40039062 8.95117188 C-1.74263672 9.68916016 -2.08488281 10.42714844 -2.4375 11.1875 C-2.77587891 11.93708984 -3.11425781 12.68667969 -3.46289062 13.45898438 C-4.2999411 15.30992698 -5.14885404 17.15549666 -6 19 C-6.66 19 -7.32 19 -8 19 C-7.56056609 12.40849136 -5.198616 6.7595017 -2 1 C-1.34 0.67 -0.68 0.34 0 0 Z " fill="#8D309C" transform="translate(249,419)"/>
<path d="M0 0 C5.22654901 1.47642627 8.16826439 4.82231936 11.8125 8.625 C12.7087207 9.54152344 12.7087207 9.54152344 13.62304688 10.4765625 C15.08895106 11.97764839 16.54542993 13.48792862 18 15 C17.01 15.33 16.02 15.66 15 16 C14.33613281 15.32453125 13.67226563 14.6490625 12.98828125 13.953125 C12.10527344 13.06109375 11.22226562 12.1690625 10.3125 11.25 C9.44238281 10.36828125 8.57226562 9.4865625 7.67578125 8.578125 C5.05815616 5.9653261 5.05815616 5.9653261 2.16796875 3.796875 C1.45253906 3.20390625 0.73710937 2.6109375 0 2 C0 1.34 0 0.68 0 0 Z " fill="#862794" transform="translate(354,469)"/>
<path d="M0 0 C0 1.32 0 2.64 0 4 C-1.62249941 4.83819158 -3.24808497 5.6704116 -4.875 6.5 C-6.23238281 7.19609375 -6.23238281 7.19609375 -7.6171875 7.90625 C-10 9 -10 9 -12 9 C-11.32883374 6.31533497 -10.64175095 4.49474888 -8.4140625 2.77734375 C-5.4785209 1.04946167 -3.44242349 0 0 0 Z " fill="#EBEBED" transform="translate(337,509)"/>
<path d="M0 0 C0.66 0 1.32 0 2 0 C0.53162104 3.19975116 -1.27839346 5.84834256 -3.4375 8.625 C-4.33275391 9.78902344 -4.33275391 9.78902344 -5.24609375 10.9765625 C-7 13 -7 13 -10 15 C-10.66 14.34 -11.32 13.68 -12 13 C-11.38511719 12.39671875 -10.77023437 11.7934375 -10.13671875 11.171875 C-9.32847656 10.37265625 -8.52023437 9.5734375 -7.6875 8.75 C-6.88699219 7.96109375 -6.08648437 7.1721875 -5.26171875 6.359375 C-2.99268674 4.09923596 -2.99268674 4.09923596 -1.33203125 1.703125 C-0.89246094 1.14109375 -0.45289063 0.5790625 0 0 Z " fill="#883E9B" transform="translate(307,564)"/>
<path d="M0 0 C0.99 0 1.98 0 3 0 C3.77528479 3.42573937 4.11918778 6.57239245 4.09765625 10.08203125 C4.09282227 11.47905273 4.09282227 11.47905273 4.08789062 12.90429688 C4.07951172 13.86400391 4.07113281 14.82371094 4.0625 15.8125 C4.05798828 16.79154297 4.05347656 17.77058594 4.04882812 18.77929688 C4.03708684 21.18626111 4.02066419 23.59309857 4 26 C3.67 26 3.34 26 3 26 C2.86722656 24.7934375 2.73445313 23.586875 2.59765625 22.34375 C2.41930075 20.72916336 2.24091364 19.11458021 2.0625 17.5 C1.97548828 16.70851563 1.88847656 15.91703125 1.79882812 15.1015625 C1.24115491 10.06184897 0.64027388 5.02989934 0 0 Z " fill="#842294" transform="translate(372,529)"/>
<path d="M0 0 C4.12751449 0.60698743 7.3321148 2.03810791 11 4 C10.67 4.99 10.34 5.98 10 7 C6.28111761 6.49287967 3.26545761 5.88391785 0 4 C0 2.68 0 1.36 0 0 Z " fill="#F0EDF1" transform="translate(216,493)"/>
<path d="M0 0 C0.99 0.66 1.98 1.32 3 2 C1.25447936 3.15264553 -0.49660196 4.29687327 -2.25 5.4375 C-3.22453125 6.07558594 -4.1990625 6.71367188 -5.203125 7.37109375 C-9.31998007 9.76875934 -9.31998007 9.76875934 -12 10 C-12.66 9.34 -13.32 8.68 -14 8 C-12.98679687 7.51080078 -12.98679687 7.51080078 -11.953125 7.01171875 C-11.06109375 6.57472656 -10.1690625 6.13773438 -9.25 5.6875 C-8.36828125 5.25824219 -7.4865625 4.82898438 -6.578125 4.38671875 C-4.18399785 3.09896854 -2.12223042 1.69084246 0 0 Z " fill="#853F98" transform="translate(292,599)"/>
<path d="M0 0 C1.485 0.99 1.485 0.99 3 2 C3 2.66 3 3.32 3 4 C3.99 4.33 4.98 4.66 6 5 C5.67 6.32 5.34 7.64 5 9 C3.68 9.33 2.36 9.66 1 10 C0.22157062 6.59437148 -0.09978121 3.49234244 0 0 Z " fill="#8E2F98" transform="translate(371,510)"/>
<path d="M0 0 C3.22269618 3.79817765 5.74520378 7.57391854 8 12 C7.67 12.66 7.34 13.32 7 14 C6.34 14 5.68 14 5 14 C3.96958487 12.04669132 2.9509107 10.08718472 1.9375 8.125 C1.08478516 6.48917969 1.08478516 6.48917969 0.21484375 4.8203125 C-0.18605469 3.88960938 -0.58695312 2.95890625 -1 2 C-0.67 1.34 -0.34 0.68 0 0 Z " fill="#9E40A7" transform="translate(365,497)"/>
<path d="M0 0 C-1 3 -1 3 -3.21484375 4.38671875 C-4.56255859 5.03060547 -4.56255859 5.03060547 -5.9375 5.6875 C-6.83339844 6.12449219 -7.72929687 6.56148438 -8.65234375 7.01171875 C-11 8 -11 8 -13 8 C-11.62087597 4.59863711 -10.37388141 3.30394435 -7.0625 1.75 C-6.37285156 1.41484375 -5.68320312 1.0796875 -4.97265625 0.734375 C-3 0 -3 0 0 0 Z " fill="#8F3096" transform="translate(308,416)"/>
<path d="M0 0 C1.67542976 0.28604898 3.34385343 0.61781233 5 1 C5 2.65 5 4.3 5 6 C1.25 7.125 1.25 7.125 -1 6 C-1.042721 4.33388095 -1.04063832 2.66617115 -1 1 C-0.67 0.67 -0.34 0.34 0 0 Z " fill="#86278E" transform="translate(296,406)"/>
<path d="M0 0 C8.58 0 17.16 0 26 0 C26 0.33 26 0.66 26 1 C18.41 1.33 10.82 1.66 3 2 C2.67 2.99 2.34 3.98 2 5 C1.34 5 0.68 5 0 5 C0 3.35 0 1.7 0 0 Z " fill="#F2F4F2" transform="translate(695,523)"/>
<path d="M0 0 C0.66 1.32 1.32 2.64 2 4 C1.1015625 6.140625 1.1015625 6.140625 -0.375 8.25 C-0.85710937 8.95640625 -1.33921875 9.6628125 -1.8359375 10.390625 C-2.22007812 10.92171875 -2.60421875 11.4528125 -3 12 C-4.32 11.67 -5.64 11.34 -7 11 C-4.69 7.37 -2.38 3.74 0 0 Z " fill="#9644A6" transform="translate(241,393)"/>
<path d="M0 0 C0.66 0.66 1.32 1.32 2 2 C0.90751403 3.50852857 -0.19938499 5.00662831 -1.3125 6.5 C-2.23482422 7.75296875 -2.23482422 7.75296875 -3.17578125 9.03125 C-3.77777344 9.6809375 -4.37976563 10.330625 -5 11 C-5.99 11 -6.98 11 -8 11 C-6.52670958 5.99081256 -3.72484762 3.48192278 0 0 Z " fill="#8F2B9B" transform="translate(285,446)"/>
<path d="M0 0 C0.66 0 1.32 0 2 0 C2 0.99 2 1.98 2 3 C0.58774074 3.67595315 -0.83002905 4.34040059 -2.25 5 C-3.43335938 5.556875 -3.43335938 5.556875 -4.640625 6.125 C-7 7 -7 7 -11 7 C-11 6.34 -11 5.68 -11 5 C-9.93458984 4.58427734 -9.93458984 4.58427734 -8.84765625 4.16015625 C-7.46900391 3.61681641 -7.46900391 3.61681641 -6.0625 3.0625 C-5.14597656 2.70285156 -4.22945313 2.34320312 -3.28515625 1.97265625 C-1.07581467 1.2003782 -1.07581467 1.2003782 0 0 Z " fill="#7F3895" transform="translate(264,575)"/>
<path d="M0 0 C-3.00440021 2.00293347 -4.70993945 2.49271626 -8.1875 3.125 C-9.08855469 3.29257812 -9.98960937 3.46015625 -10.91796875 3.6328125 C-11.60503906 3.75398437 -12.29210937 3.87515625 -13 4 C-13.33 3.01 -13.66 2.02 -14 1 C-8.83955235 -0.512545 -5.34001821 -1.33500455 0 0 Z " fill="#87419C" transform="translate(255,582)"/>
<path d="M0 0 C5.75 1.875 5.75 1.875 8 3 C8 4.32 8 5.64 8 7 C2.25 5.125 2.25 5.125 0 4 C0 2.68 0 1.36 0 0 Z " fill="#EBEAED" transform="translate(216,525)"/>
<path d="M0 0 C0.99 0 1.98 0 3 0 C3.99 3.3 4.98 6.6 6 10 C5.34 10 4.68 10 4 10 C3.67 10.66 3.34 11.32 3 12 C2.01 8.04 1.02 4.08 0 0 Z " fill="#9C45A7" transform="translate(385,511)"/>
<path d="M0 0 C0.99 0.33 1.98 0.66 3 1 C2.01 3.97 1.02 6.94 0 10 C-0.99 10 -1.98 10 -3 10 C-2.49287967 6.28111761 -1.88391785 3.26545761 0 0 Z " fill="#953BA1" transform="translate(255,435)"/>
<path d="M0 0 C0 0.99 0 1.98 0 3 C-5.28 2.34 -10.56 1.68 -16 1 C-16 0.67 -16 0.34 -16 0 C-10.31302429 -0.91397824 -5.68697571 -0.91397824 0 0 Z " fill="#9F4EA7" transform="translate(351,431)"/>
<path d="M0 0 C-2.2008849 2.47859908 -4.06372969 3.61210366 -7.1875 4.6875 C-7.90292969 4.93886719 -8.61835938 5.19023438 -9.35546875 5.44921875 C-9.89816406 5.63097656 -10.44085938 5.81273437 -11 6 C-11.33 5.01 -11.66 4.02 -12 3 C-4.71428571 -0.42857143 -4.71428571 -0.42857143 0 0 Z " fill="#8A449D" transform="translate(280,591)"/>
<path d="M0 0 C0 1.32 0 2.64 0 4 C-1.98 4.66 -3.96 5.32 -6 6 C-6.66 5.34 -7.32 4.68 -8 4 C-5.29881977 1.17603885 -4.05589853 0 0 0 Z " fill="#F4F4F6" transform="translate(337,477)"/>
<path d="M0 0 C0.33 1.32 0.66 2.64 1 4 C-1.31 5.65 -3.62 7.3 -6 9 C-6 5 -6 5 -4.6875 3.515625 C-3.125 2.34375 -1.5625 1.171875 0 0 Z " fill="#9E3DA8" transform="translate(293,439)"/>
<path d="M0 0 C0 1.32 0 2.64 0 4 C-2.90600261 5.25664978 -4.79604584 6 -8 6 C-8 5.34 -8 4.68 -8 4 C-3.64705882 0 -3.64705882 0 0 0 Z " fill="#F5F5F7" transform="translate(337,493)"/>
<path d="M0 0 C8.57142857 0.85714286 8.57142857 0.85714286 12 3 C11.34 3.66 10.68 4.32 10 5 C8.51800098 4.55090939 7.03944764 4.09043436 5.5625 3.625 C4.73878906 3.36976563 3.91507812 3.11453125 3.06640625 2.8515625 C1 2 1 2 0 0 Z " fill="#973BA0" transform="translate(350,432)"/>
<path d="M0 0 C0.66 0 1.32 0 2 0 C1.35494404 3.48330216 0.01782732 6.09432866 -2 9 C-2.66 9 -3.32 9 -4 9 C-3.4739075 5.21213403 -2.61896089 2.82847776 0 0 Z " fill="#8B2B99" transform="translate(260,427)"/>
<path d="M0 0 C1 3 1 3 0.22265625 4.82421875 C-0.8515625 6.54947917 -1.92578125 8.27473958 -3 10 C-3.66 10 -4.32 10 -5 10 C-4.45276317 6.62537285 -3.9451 4.91765 -2 2 C-1.34 2 -0.68 2 0 2 C0 1.34 0 0.68 0 0 Z " fill="#8C349C" transform="translate(236,403)"/>
<path d="M0 0 C0.66 0 1.32 0 2 0 C2 0.99 2 1.98 2 3 C2.66 3.33 3.32 3.66 4 4 C1.03 6.475 1.03 6.475 -2 9 C-1.41196203 5.97580475 -0.77321882 2.98241547 0 0 Z " fill="#9430A1" transform="translate(389,521)"/>
<path d="M0 0 C3.67230705 3.07999946 4.56802365 5.2482602 5 10 C1.32769295 6.92000054 0.43197635 4.7517398 0 0 Z " fill="#86339D" transform="translate(194,479)"/>
<path d="M0 0 C1.32 0.66 2.64 1.32 4 2 C0.7 2.33 -2.6 2.66 -6 3 C-6.33 2.01 -6.66 1.02 -7 0 C-3.78715118 -1.07094961 -3.0747749 -1.02492497 0 0 Z " fill="#9744A3" transform="translate(316,431)"/>
<path d="M0 0 C0.66 0.99 1.32 1.98 2 3 C-1.96 4.98 -1.96 4.98 -6 7 C-5 3 -5 3 -2.4375 1.25 C-1.2309375 0.63125 -1.2309375 0.63125 0 0 Z " fill="#94349E" transform="translate(300,435)"/>
<path d="M0 0 C0.33 0.66 0.66 1.32 1 2 C1.66 2.33 2.32 2.66 3 3 C2.34 5.31 1.68 7.62 1 10 C0.34 10 -0.32 10 -1 10 C-0.67 6.7 -0.34 3.4 0 0 Z " fill="#8D3E9F" transform="translate(205,414)"/>
<path d="M0 0 C0 1.32 0 2.64 0 4 C-1.65 4.66 -3.3 5.32 -5 6 C-5 4.35 -5 2.7 -5 1 C-3 0 -3 0 0 0 Z " fill="#E3E1E8" transform="translate(337,509)"/>
<path d="M0 0 C1.1725131 0.95117134 2.33787015 1.91117009 3.5 2.875 C4.47453125 3.67550781 4.47453125 3.67550781 5.46875 4.4921875 C5.9740625 4.98976563 6.479375 5.48734375 7 6 C7 6.66 7 7.32 7 8 C3.2047869 6.50902342 1.38957269 4.24299151 -1 1 C-0.67 0.67 -0.34 0.34 0 0 Z " fill="#812C9B" transform="translate(192,500)"/>
<path d="M0 0 C0.53625 0.474375 1.0725 0.94875 1.625 1.4375 C4.42842836 3.28186076 6.69620258 3.62456847 10 4 C10 4.33 10 4.66 10 5 C6.75 5.75 6.75 5.75 3 6 C0.5625 4.0625 0.5625 4.0625 -1 2 C-0.67 1.34 -0.34 0.68 0 0 Z " fill="#9E4AA8" transform="translate(380,463)"/>
<path d="M0 0 C0.66 0.33 1.32 0.66 2 1 C0.125 4.875 0.125 4.875 -1 6 C-2.66617115 6.04063832 -4.33388095 6.042721 -6 6 C-4 4 -2 2 0 0 Z " fill="#9A3AA4" transform="translate(286,415)"/>
<path d="M0 0 C0.99 0 1.98 0 3 0 C3.33 2.97 3.66 5.94 4 9 C3.01 8.67 2.02 8.34 1 8 C0.67 5.36 0.34 2.72 0 0 Z " fill="#9B48A6" transform="translate(372,529)"/>
<path d="M0 0 C0.66 0 1.32 0 2 0 C0.55746343 3.36591866 -1.33264727 5.51047079 -4 8 C-4 4.06830895 -2.60580385 2.83572772 0 0 Z " fill="#8F42A3" transform="translate(307,564)"/>
<path d="M0 0 C0.66 0 1.32 0 2 0 C2.1875 2.8125 2.1875 2.8125 2 6 C1.01 6.99 0.02 7.98 -1 9 C-0.67 6.03 -0.34 3.06 0 0 Z " fill="#86339B" transform="translate(339,551)"/>
<path d="M0 0 C3 3.75 3 3.75 3 6 C2.01 6.33 1.02 6.66 0 7 C-0.66 5.02 -1.32 3.04 -2 1 C-1.34 0.67 -0.68 0.34 0 0 Z " fill="#934DA8" transform="translate(180,480)"/>
<path d="M0 0 C0 0.99 0 1.98 0 3 C-1.98 3.33 -3.96 3.66 -6 4 C-6.33 3.01 -6.66 2.02 -7 1 C-4.50935112 0.31292445 -2.62113708 0 0 0 Z " fill="#8C4AA1" transform="translate(248,565)"/>
<path d="M0 0 C0.66 0 1.32 0 2 0 C1.67 1.65 1.34 3.3 1 5 C-0.32 5 -1.64 5 -3 5 C-1.125 1.125 -1.125 1.125 0 0 Z " fill="#8E279B" transform="translate(363,515)"/>
<path d="M0 0 C1.32 0.99 2.64 1.98 4 3 C2.35 4.65 0.7 6.3 -1 8 C-0.67 5.36 -0.34 2.72 0 0 Z " fill="#9532A2" transform="translate(360,512)"/>
<path d="M0 0 C3.65316671 1.24976756 4.78065836 1.67098753 7 5 C6.01 5.495 6.01 5.495 5 6 C3.2925002 4.71937515 1.62626404 3.38232443 0 2 C0 1.34 0 0.68 0 0 Z " fill="#953CA2" transform="translate(354,469)"/>
<path d="M0 0 C0.66 0.99 1.32 1.98 2 3 C0.6875 4.5 0.6875 4.5 -1 6 C-1.99 6 -2.98 6 -4 6 C-2.84826645 3.53199953 -1.95216435 1.95216435 0 0 Z " fill="#9C3DA6" transform="translate(279,405)"/>
<path d="M0 0 C1.98 0.66 3.96 1.32 6 2 C5.01 3.485 5.01 3.485 4 5 C2.02 4.01 0.04 3.02 -2 2 C-1.34 1.34 -0.68 0.68 0 0 Z " fill="#9C4AA3" transform="translate(363,453)"/>
<path d="M0 0 C0.66 0.66 1.32 1.32 2 2 C-0.97 4.475 -0.97 4.475 -4 7 C-4 4 -4 4 -2 1.8125 C-1.34 1.214375 -0.68 0.61625 0 0 Z " fill="#8C229B" transform="translate(274,410)"/>
</svg>
